# xmcd
#
# Track frame offsets:
#	150
#	17520
#	36953
#	50383
#	68984
#
# Disc length: 1137 seconds
#
# Revision: 0
# Processed by: cddbd v1.5.2PL0 Copyright (c) Steve Scherf et al.
# Submitted via: EasyCDDAExtractor 15.0.0.1
#
DISCID=3a046f05
DTITLE=Cesar Camargo and Victor - Menina dos meus sonhos 
DYEAR=1900
DGENRE=
TTITLE0=Menina dos meus sonhos
TTITLE1=Sem ela saber
TTITLE2=Festa no salao
TTITLE3=Minha vida
TTITLE4=Amor impossivel
EXTD=
EXTT0=
EXTT1=
EXTT2=
EXTT3=
EXTT4=
PLAYORDER=
